# Alias OBJ Model File
# Exported from SketchUp, (c) 2000-2012 Trimble Navigation Limited
# File units = meters

mtllib caja.mtl

g Mesh1 Model

usemtl _
v 0.4 0.00329056 -0
vt -15.748 0
vn 0 -1 -0
v 0 0.00329056 -0
vt 0 0
v 0 0.00329056 -0.4
vt 0 15.748
v 0.4 0.00329056 -0.4
vt -15.748 15.748
f 1/1/1 2/2/1 3/3/1 4/4/1 

vt 0 0.129549
vn 0 0 1
vt 15.748 0.129549
v 0.4 0.703291 -0
vt 15.748 27.6886
v 0 0.703291 -0
vt 0 27.6886
f 2/5/2 1/6/2 5/7/2 6/8/2 

vn 1 0 -0
v 0.4 0.703291 -0.4
f 1/5/3 4/6/3 7/7/3 5/8/3 

vt -15.748 0.129549
vn 0 0 -1
v 0 0.703291 -0.4
vt -15.748 27.6886
f 4/9/4 3/5/4 8/8/4 7/10/4 

vn -1 0 -0
f 3/9/5 2/5/5 6/8/5 8/10/5 

vn 0 1 -0
vt 15.748 0
vt 15.748 15.748
f 6/2/6 5/11/6 7/12/6 8/3/6 

