# Alias OBJ Model File
# Exported from SketchUp, (c) 2000-2012 Trimble Navigation Limited
# File units = inches

mtllib suelo.mtl

g Mesh1 Model

usemtl _
v -9.99748 0 -12.3428
vt 0.833123 1.64571
vn 0 -1 -0
v 10.7525 0 -12.3428
vt -0.896044 1.64571
v 10.7525 0 11.3447
vt -0.896044 -1.51263
v -9.99748 0 11.3447
vt 0.833123 -1.51263
f 1/1/1 2/2/1 3/3/1 4/4/1 

vt -0.896044 0
vn 0 0 -1
vt 0.833123 0
v -9.99748 0.75 -12.3428
vt 0.833123 0.1
v 10.7525 0.75 -12.3428
vt -0.896044 0.1
f 2/5/2 1/6/2 5/7/2 6/8/2 

vt -1.02857 0
vn -1 0 -0
vt 0.945392 0
v -9.99748 0.75 11.3447
vt 0.945392 0.1
vt -1.02857 0.1
f 1/9/3 4/10/3 7/11/3 5/12/3 

vt -0.833123 0
vn 0 0 1
vt 0.896044 0
v 10.7525 0.75 11.3447
vt 0.896044 0.1
vt -0.833123 0.1
f 4/13/4 3/14/4 8/15/4 7/16/4 

vt -0.945392 0
vn 1 0 -0
vt 1.02857 0
vt 1.02857 0.1
vt -0.945392 0.1
f 3/17/5 2/18/5 6/19/5 8/20/5 

vt 0.896044 1.64571
vn 0 1 -0
vt -0.833123 1.64571
vt -0.833123 -1.51263
vt 0.896044 -1.51263
f 6/21/6 5/22/6 7/23/6 8/24/6 

