# Alias OBJ Model File
# Exported from SketchUp, (c) 2000-2012 Trimble Navigation Limited
# File units = meters

mtllib center.mtl

g Mesh1 Model

usemtl _
v 0.005 0 -0.00866025
vt -0.19685 0.340955
vn 0 -1 -0
v 0.00707107 0 -0.00707107
vt -0.278388 0.278388
v 0.00866025 0 -0.005
vt -0.340955 0.19685
v 0.00965926 0 -0.00258819
vt -0.380286 0.101897
v 0.01 0 -0
vt -0.393701 0
v 0.00965926 0 0.00258819
vt -0.380286 -0.101897
v 0.00866025 0 0.005
vt -0.340955 -0.19685
v 0.00707107 0 0.00707107
vt -0.278388 -0.278388
v 0.005 0 0.00866025
vt -0.19685 -0.340955
v 0.00258819 0 0.00965926
vt -0.101897 -0.380286
v -1.83697e-18 0 0.01
vt 7.23217e-17 -0.393701
v -0.00258819 0 0.00965926
vt 0.101897 -0.380286
v -0.005 0 0.00866025
vt 0.19685 -0.340955
v -0.00707107 0 0.00707107
vt 0.278388 -0.278388
v -0.00866025 0 0.005
vt 0.340955 -0.19685
v -0.00965926 0 0.00258819
vt 0.380286 -0.101897
v -0.01 0 -1.22465e-18
vt 0.393701 4.82144e-17
v -0.00965926 0 -0.00258819
vt 0.380286 0.101897
v -0.00866025 0 -0.005
vt 0.340955 0.19685
v -0.00707107 0 -0.00707107
vt 0.278388 0.278388
v -0.005 0 -0.00866025
vt 0.19685 0.340955
v -0.00258819 0 -0.00965926
vt 0.101897 0.380286
v 6.12323e-19 0 -0.01
vt -2.41072e-17 0.393701
v 0.00258819 0 -0.00965926
vt -0.101897 0.380286
f 1/1/1 2/2/1 3/3/1 4/4/1 5/5/1 6/6/1 7/7/1 8/8/1 9/9/1 10/10/1 11/11/1 12/12/1 13/13/1 14/14/1 15/15/1 16/16/1 17/17/1 18/18/1 19/19/1 20/20/1 21/21/1 22/22/1 23/23/1 24/24/1 

vt -0.0513883 0
vn 0.707107 0 -0.707107
vt 0.0513883 0
vn 0.5 0 -0.866025
v 0.005 0.03 -0.00866025
vt 0.0513883 1.1811
v 0.00707107 0.03 -0.00707107
vt -0.0513883 1.1811
f 2/25/2 1/26/3 25/27/3 26/28/2 

vn 0.258819 0 -0.965926
v 0.00258819 0.03 -0.00965926
f 1/25/3 24/26/4 27/27/4 25/28/3 

vn -4.19926e-17 0 -1
v 6.12323e-19 0.03 -0.01
f 24/25/4 23/26/5 28/27/5 27/28/4 

vn -0.258819 0 -0.965926
v -0.00258819 0.03 -0.00965926
f 23/25/5 22/26/6 29/27/6 28/28/5 

vn -0.5 0 -0.866025
v -0.005 0.03 -0.00866025
f 22/25/6 21/26/7 30/27/7 29/28/6 

vn -0.707107 0 -0.707107
v -0.00707107 0.03 -0.00707107
f 21/25/7 20/26/8 31/27/8 30/28/7 

vn -0.866025 0 -0.5
v -0.00866025 0.03 -0.005
f 20/25/8 19/26/9 32/27/9 31/28/8 

vn -0.965926 0 -0.258819
v -0.00965926 0.03 -0.00258819
f 19/25/9 18/26/10 33/27/10 32/28/9 

vn -1 0 -1.53973e-16
v -0.01 0.03 -1.22465e-18
f 18/25/10 17/26/11 34/27/11 33/28/10 

vn -0.965926 0 0.258819
v -0.00965926 0.03 0.00258819
f 17/25/11 16/26/12 35/27/12 34/28/11 

vn -0.866025 0 0.5
v -0.00866025 0.03 0.005
f 16/25/12 15/26/13 36/27/13 35/28/12 

vn -0.707107 0 0.707107
v -0.00707107 0.03 0.00707107
f 15/25/13 14/26/14 37/27/14 36/28/13 

vn -0.5 0 0.866025
v -0.005 0.03 0.00866025
f 14/25/14 13/26/15 38/27/15 37/28/14 

vn -0.258819 0 0.965926
v -0.00258819 0.03 0.00965926
f 13/25/15 12/26/16 39/27/16 38/28/15 

vn -3.21943e-16 0 1
v -1.83697e-18 0.03 0.01
f 12/25/16 11/26/17 40/27/17 39/28/16 

vn 0.258819 0 0.965926
v 0.00258819 0.03 0.00965926
f 11/25/17 10/26/18 41/27/18 40/28/17 

vn 0.5 0 0.866025
v 0.005 0.03 0.00866025
f 10/25/18 9/26/19 42/27/19 41/28/18 

vn 0.707107 0 0.707107
v 0.00707107 0.03 0.00707107
f 9/25/19 8/26/20 43/27/20 42/28/19 

vn 0.866025 0 0.5
v 0.00866025 0.03 0.005
f 8/25/20 7/26/21 44/27/21 43/28/20 

vn 0.965926 0 0.258819
v 0.00965926 0.03 0.00258819
f 7/25/21 6/26/22 45/27/22 44/28/21 

vn 1 0 4.19926e-17
v 0.01 0.03 -0
f 6/25/22 5/26/23 46/27/23 45/28/22 

vn 0.965926 0 -0.258819
v 0.00965926 0.03 -0.00258819
f 5/25/23 4/26/24 47/27/24 46/28/23 

vn 0.866025 0 -0.5
v 0.00866025 0.03 -0.005
f 4/25/24 3/26/25 48/27/25 47/28/24 

f 3/25/25 2/26/2 26/27/2 48/28/25 

vn 0 1 -0
vt 2.41072e-17 0.393701
vt -0.393701 4.82144e-17
vt -7.23217e-17 -0.393701
vt 0.393701 0
f 26/20/26 25/21/26 27/22/26 28/29/26 29/24/26 30/1/26 31/2/26 32/3/26 33/4/26 34/30/26 35/6/26 36/7/26 37/8/26 38/9/26 39/10/26 40/31/26 41/12/26 42/13/26 43/14/26 44/15/26 45/16/26 46/32/26 47/18/26 48/19/26 

